<mxfile host="app.diagrams.net" modified="2020-10-11T09:36:10.527Z" agent="5.0 (Windows NT 10.0; Win64; x64) AppleWebKit/537.36 (KHTML, like Gecko) Chrome/85.0.4183.121 Safari/537.36" etag="cCkyRL4T09WVzWyegoiu" version="13.7.9" type="github">
  <diagram id="7W0VBFsezwCrg8yJX4ui" name="Page-1">
    <mxGraphModel dx="1038" dy="580" grid="1" gridSize="10" guides="1" tooltips="1" connect="1" arrows="1" fold="1" page="1" pageScale="1" pageWidth="850" pageHeight="1100" background="#F1FAEE" math="0" shadow="0">
      <root>
        <mxCell id="0" />
        <mxCell id="1" parent="0" />
        <mxCell id="r5Cem-bLn_GhZtfLwRqY-13" value="" style="edgeStyle=orthogonalEdgeStyle;rounded=0;orthogonalLoop=1;jettySize=auto;html=1;labelBackgroundColor=#F1FAEE;strokeColor=#457B9D;fontColor=#1D3557;" edge="1" parent="1" source="r5Cem-bLn_GhZtfLwRqY-1" target="r5Cem-bLn_GhZtfLwRqY-2">
          <mxGeometry relative="1" as="geometry" />
        </mxCell>
        <mxCell id="r5Cem-bLn_GhZtfLwRqY-1" value="Customer Registration" style="rounded=0;whiteSpace=wrap;html=1;fillColor=#A8DADC;strokeColor=#457B9D;fontColor=#1D3557;" vertex="1" parent="1">
          <mxGeometry x="40" y="200" width="120" height="40" as="geometry" />
        </mxCell>
        <mxCell id="r5Cem-bLn_GhZtfLwRqY-14" value="" style="edgeStyle=orthogonalEdgeStyle;rounded=0;orthogonalLoop=1;jettySize=auto;html=1;labelBackgroundColor=#F1FAEE;strokeColor=#457B9D;fontColor=#1D3557;" edge="1" parent="1" source="r5Cem-bLn_GhZtfLwRqY-2" target="r5Cem-bLn_GhZtfLwRqY-3">
          <mxGeometry relative="1" as="geometry" />
        </mxCell>
        <mxCell id="r5Cem-bLn_GhZtfLwRqY-2" value="Place Order" style="rounded=0;whiteSpace=wrap;html=1;fillColor=#A8DADC;strokeColor=#457B9D;fontColor=#1D3557;" vertex="1" parent="1">
          <mxGeometry x="200" y="120" width="120" height="40" as="geometry" />
        </mxCell>
        <mxCell id="r5Cem-bLn_GhZtfLwRqY-15" value="" style="edgeStyle=orthogonalEdgeStyle;rounded=0;orthogonalLoop=1;jettySize=auto;html=1;labelBackgroundColor=#F1FAEE;strokeColor=#457B9D;fontColor=#1D3557;" edge="1" parent="1" source="r5Cem-bLn_GhZtfLwRqY-3" target="r5Cem-bLn_GhZtfLwRqY-9">
          <mxGeometry relative="1" as="geometry" />
        </mxCell>
        <mxCell id="r5Cem-bLn_GhZtfLwRqY-3" value="Give Delivery Details" style="rounded=0;whiteSpace=wrap;html=1;fillColor=#A8DADC;strokeColor=#457B9D;fontColor=#1D3557;" vertex="1" parent="1">
          <mxGeometry x="400" y="120" width="120" height="40" as="geometry" />
        </mxCell>
        <mxCell id="r5Cem-bLn_GhZtfLwRqY-27" style="edgeStyle=orthogonalEdgeStyle;rounded=0;orthogonalLoop=1;jettySize=auto;html=1;exitX=0;exitY=0.5;exitDx=0;exitDy=0;entryX=1;entryY=0.5;entryDx=0;entryDy=0;labelBackgroundColor=#F1FAEE;strokeColor=#457B9D;fontColor=#1D3557;" edge="1" parent="1" source="r5Cem-bLn_GhZtfLwRqY-4" target="r5Cem-bLn_GhZtfLwRqY-5">
          <mxGeometry relative="1" as="geometry" />
        </mxCell>
        <mxCell id="r5Cem-bLn_GhZtfLwRqY-4" value="Make Payment" style="rounded=0;whiteSpace=wrap;html=1;fillColor=#A8DADC;strokeColor=#457B9D;fontColor=#1D3557;" vertex="1" parent="1">
          <mxGeometry x="600" y="360" width="120" height="40" as="geometry" />
        </mxCell>
        <mxCell id="r5Cem-bLn_GhZtfLwRqY-29" value="" style="edgeStyle=orthogonalEdgeStyle;rounded=0;orthogonalLoop=1;jettySize=auto;html=1;labelBackgroundColor=#F1FAEE;strokeColor=#457B9D;fontColor=#1D3557;" edge="1" parent="1" source="r5Cem-bLn_GhZtfLwRqY-5" target="r5Cem-bLn_GhZtfLwRqY-7">
          <mxGeometry relative="1" as="geometry" />
        </mxCell>
        <mxCell id="r5Cem-bLn_GhZtfLwRqY-5" value="Pack Items" style="rounded=0;whiteSpace=wrap;html=1;fillColor=#A8DADC;strokeColor=#457B9D;fontColor=#1D3557;" vertex="1" parent="1">
          <mxGeometry x="280" y="360" width="120" height="40" as="geometry" />
        </mxCell>
        <mxCell id="r5Cem-bLn_GhZtfLwRqY-18" style="edgeStyle=orthogonalEdgeStyle;rounded=0;orthogonalLoop=1;jettySize=auto;html=1;entryX=1;entryY=0.5;entryDx=0;entryDy=0;labelBackgroundColor=#F1FAEE;strokeColor=#457B9D;fontColor=#1D3557;" edge="1" parent="1" source="r5Cem-bLn_GhZtfLwRqY-6" target="r5Cem-bLn_GhZtfLwRqY-4">
          <mxGeometry relative="1" as="geometry">
            <mxPoint x="780" y="300" as="targetPoint" />
          </mxGeometry>
        </mxCell>
        <mxCell id="r5Cem-bLn_GhZtfLwRqY-6" value="Check requirements" style="rounded=0;whiteSpace=wrap;html=1;fillColor=#A8DADC;strokeColor=#457B9D;fontColor=#1D3557;" vertex="1" parent="1">
          <mxGeometry x="720" y="240" width="120" height="40" as="geometry" />
        </mxCell>
        <mxCell id="r5Cem-bLn_GhZtfLwRqY-30" value="" style="edgeStyle=orthogonalEdgeStyle;rounded=0;orthogonalLoop=1;jettySize=auto;html=1;labelBackgroundColor=#F1FAEE;strokeColor=#457B9D;fontColor=#1D3557;" edge="1" parent="1" source="r5Cem-bLn_GhZtfLwRqY-7" target="r5Cem-bLn_GhZtfLwRqY-8">
          <mxGeometry relative="1" as="geometry" />
        </mxCell>
        <mxCell id="r5Cem-bLn_GhZtfLwRqY-7" value="Check Destination" style="rounded=0;whiteSpace=wrap;html=1;fillColor=#A8DADC;strokeColor=#457B9D;fontColor=#1D3557;" vertex="1" parent="1">
          <mxGeometry x="40" y="360" width="120" height="40" as="geometry" />
        </mxCell>
        <mxCell id="r5Cem-bLn_GhZtfLwRqY-8" value="Deliver Item" style="rounded=0;whiteSpace=wrap;html=1;fillColor=#A8DADC;strokeColor=#457B9D;fontColor=#1D3557;" vertex="1" parent="1">
          <mxGeometry x="40" y="480" width="120" height="40" as="geometry" />
        </mxCell>
        <mxCell id="r5Cem-bLn_GhZtfLwRqY-17" style="edgeStyle=orthogonalEdgeStyle;rounded=0;orthogonalLoop=1;jettySize=auto;html=1;exitX=1;exitY=0.5;exitDx=0;exitDy=0;entryX=0.5;entryY=0;entryDx=0;entryDy=0;labelBackgroundColor=#F1FAEE;strokeColor=#457B9D;fontColor=#1D3557;" edge="1" parent="1" source="r5Cem-bLn_GhZtfLwRqY-9" target="r5Cem-bLn_GhZtfLwRqY-6">
          <mxGeometry relative="1" as="geometry" />
        </mxCell>
        <mxCell id="r5Cem-bLn_GhZtfLwRqY-19" value="" style="edgeStyle=orthogonalEdgeStyle;rounded=0;orthogonalLoop=1;jettySize=auto;html=1;labelBackgroundColor=#F1FAEE;strokeColor=#457B9D;fontColor=#1D3557;" edge="1" parent="1" source="r5Cem-bLn_GhZtfLwRqY-9" target="r5Cem-bLn_GhZtfLwRqY-11">
          <mxGeometry relative="1" as="geometry" />
        </mxCell>
        <mxCell id="r5Cem-bLn_GhZtfLwRqY-9" value="Delivery Type" style="rhombus;whiteSpace=wrap;html=1;fillColor=#A8DADC;strokeColor=#457B9D;fontColor=#1D3557;" vertex="1" parent="1">
          <mxGeometry x="600" y="100" width="80" height="80" as="geometry" />
        </mxCell>
        <mxCell id="r5Cem-bLn_GhZtfLwRqY-23" value="" style="edgeStyle=orthogonalEdgeStyle;rounded=0;orthogonalLoop=1;jettySize=auto;html=1;labelBackgroundColor=#F1FAEE;strokeColor=#457B9D;fontColor=#1D3557;" edge="1" parent="1" source="r5Cem-bLn_GhZtfLwRqY-11" target="r5Cem-bLn_GhZtfLwRqY-4">
          <mxGeometry relative="1" as="geometry" />
        </mxCell>
        <mxCell id="r5Cem-bLn_GhZtfLwRqY-25" value="" style="edgeStyle=orthogonalEdgeStyle;rounded=0;orthogonalLoop=1;jettySize=auto;html=1;labelBackgroundColor=#F1FAEE;strokeColor=#457B9D;fontColor=#1D3557;" edge="1" parent="1" source="r5Cem-bLn_GhZtfLwRqY-11" target="r5Cem-bLn_GhZtfLwRqY-12">
          <mxGeometry relative="1" as="geometry" />
        </mxCell>
        <mxCell id="r5Cem-bLn_GhZtfLwRqY-11" value="Insurance Required" style="rhombus;whiteSpace=wrap;html=1;fillColor=#A8DADC;strokeColor=#457B9D;fontColor=#1D3557;" vertex="1" parent="1">
          <mxGeometry x="600" y="240" width="80" height="80" as="geometry" />
        </mxCell>
        <mxCell id="r5Cem-bLn_GhZtfLwRqY-28" style="edgeStyle=orthogonalEdgeStyle;rounded=0;orthogonalLoop=1;jettySize=auto;html=1;exitX=0;exitY=0.5;exitDx=0;exitDy=0;entryX=0.5;entryY=0;entryDx=0;entryDy=0;labelBackgroundColor=#F1FAEE;strokeColor=#457B9D;fontColor=#1D3557;" edge="1" parent="1" source="r5Cem-bLn_GhZtfLwRqY-12" target="r5Cem-bLn_GhZtfLwRqY-5">
          <mxGeometry relative="1" as="geometry" />
        </mxCell>
        <mxCell id="r5Cem-bLn_GhZtfLwRqY-12" value="Get Insurance" style="rounded=0;whiteSpace=wrap;html=1;fillColor=#A8DADC;strokeColor=#457B9D;fontColor=#1D3557;" vertex="1" parent="1">
          <mxGeometry x="440" y="260" width="120" height="40" as="geometry" />
        </mxCell>
        <mxCell id="r5Cem-bLn_GhZtfLwRqY-20" value="Special" style="text;html=1;strokeColor=none;fillColor=none;align=center;verticalAlign=middle;whiteSpace=wrap;rounded=0;fontColor=#1D3557;" vertex="1" parent="1">
          <mxGeometry x="720" y="120" width="40" height="20" as="geometry" />
        </mxCell>
        <mxCell id="r5Cem-bLn_GhZtfLwRqY-22" value="Normal" style="text;html=1;strokeColor=none;fillColor=none;align=center;verticalAlign=middle;whiteSpace=wrap;rounded=0;fontColor=#1D3557;" vertex="1" parent="1">
          <mxGeometry x="640" y="200" width="40" height="20" as="geometry" />
        </mxCell>
        <mxCell id="r5Cem-bLn_GhZtfLwRqY-24" value="No" style="text;html=1;strokeColor=none;fillColor=none;align=center;verticalAlign=middle;whiteSpace=wrap;rounded=0;fontColor=#1D3557;" vertex="1" parent="1">
          <mxGeometry x="640" y="320" width="20" height="20" as="geometry" />
        </mxCell>
        <mxCell id="r5Cem-bLn_GhZtfLwRqY-26" value="Yes" style="text;html=1;strokeColor=none;fillColor=none;align=center;verticalAlign=middle;whiteSpace=wrap;rounded=0;fontColor=#1D3557;" vertex="1" parent="1">
          <mxGeometry x="560" y="260" width="40" height="20" as="geometry" />
        </mxCell>
        <mxCell id="r5Cem-bLn_GhZtfLwRqY-32" value="" style="endArrow=none;dashed=1;html=1;dashPattern=1 3;strokeWidth=2;fillColor=#A8DADC;fontColor=#1D3557;" edge="1" parent="1">
          <mxGeometry width="50" height="50" relative="1" as="geometry">
            <mxPoint x="560" y="250" as="sourcePoint" />
            <mxPoint x="20" y="80" as="targetPoint" />
            <Array as="points">
              <mxPoint x="20" y="250" />
            </Array>
          </mxGeometry>
        </mxCell>
        <mxCell id="r5Cem-bLn_GhZtfLwRqY-33" value="" style="endArrow=none;dashed=1;html=1;dashPattern=1 3;strokeWidth=2;fillColor=#A8DADC;fontColor=#1D3557;" edge="1" parent="1">
          <mxGeometry width="50" height="50" relative="1" as="geometry">
            <mxPoint x="560" y="250" as="sourcePoint" />
            <mxPoint x="20" y="80" as="targetPoint" />
            <Array as="points">
              <mxPoint x="560" y="80" />
            </Array>
          </mxGeometry>
        </mxCell>
        <mxCell id="r5Cem-bLn_GhZtfLwRqY-34" value="" style="endArrow=none;dashed=1;html=1;dashPattern=1 3;strokeWidth=2;fillColor=#A8DADC;fontColor=#1D3557;" edge="1" parent="1">
          <mxGeometry width="50" height="50" relative="1" as="geometry">
            <mxPoint x="560" y="80" as="sourcePoint" />
            <mxPoint x="850" y="80" as="targetPoint" />
          </mxGeometry>
        </mxCell>
        <mxCell id="r5Cem-bLn_GhZtfLwRqY-35" value="" style="endArrow=none;dashed=1;html=1;dashPattern=1 3;strokeWidth=2;fillColor=#A8DADC;fontColor=#1D3557;" edge="1" parent="1">
          <mxGeometry width="50" height="50" relative="1" as="geometry">
            <mxPoint x="420" y="440" as="sourcePoint" />
            <mxPoint x="850" y="80" as="targetPoint" />
            <Array as="points">
              <mxPoint x="850" y="440" />
            </Array>
          </mxGeometry>
        </mxCell>
        <mxCell id="r5Cem-bLn_GhZtfLwRqY-37" value="" style="endArrow=none;dashed=1;html=1;dashPattern=1 3;strokeWidth=2;fillColor=#A8DADC;fontColor=#1D3557;" edge="1" parent="1">
          <mxGeometry width="50" height="50" relative="1" as="geometry">
            <mxPoint x="420" y="540" as="sourcePoint" />
            <mxPoint x="20" y="250" as="targetPoint" />
            <Array as="points">
              <mxPoint x="20" y="540" />
            </Array>
          </mxGeometry>
        </mxCell>
        <mxCell id="r5Cem-bLn_GhZtfLwRqY-38" value="" style="endArrow=none;dashed=1;html=1;dashPattern=1 3;strokeWidth=2;fillColor=#A8DADC;fontColor=#1D3557;" edge="1" parent="1">
          <mxGeometry width="50" height="50" relative="1" as="geometry">
            <mxPoint x="420" y="250" as="sourcePoint" />
            <mxPoint x="420" y="540" as="targetPoint" />
          </mxGeometry>
        </mxCell>
      </root>
    </mxGraphModel>
  </diagram>
</mxfile>
